<?xml version="1.0" encoding="utf-8" standalone="no"?>
<!DOCTYPE svg PUBLIC "-//W3C//DTD SVG 1.1//EN"
  "http://www.w3.org/Graphics/SVG/1.1/DTD/svg11.dtd">
<svg xmlns:xlink="http://www.w3.org/1999/xlink" width="193.89pt" height="136.368pt" viewBox="0 0 193.89 136.368" xmlns="http://www.w3.org/2000/svg" version="1.1">
 <metadata>
  <rdf:RDF xmlns:dc="http://purl.org/dc/elements/1.1/" xmlns:cc="http://creativecommons.org/ns#" xmlns:rdf="http://www.w3.org/1999/02/22-rdf-syntax-ns#">
   <cc:Work>
    <dc:type rdf:resource="http://purl.org/dc/dcmitype/StillImage"/>
    <dc:date>2025-06-02T16:04:09.852463</dc:date>
    <dc:format>image/svg+xml</dc:format>
    <dc:creator>
     <cc:Agent>
      <dc:title>Matplotlib v3.7.2, https://matplotlib.org/</dc:title>
     </cc:Agent>
    </dc:creator>
   </cc:Work>
  </rdf:RDF>
 </metadata>
 <defs>
  <style type="text/css">*{stroke-linejoin: round; stroke-linecap: butt}</style>
 </defs>
 <g id="figure_1">
  <g id="patch_1">
   <path d="M 0 136.368 
L 193.89 136.368 
L 193.89 0 
L 0 0 
L 0 136.368 
z
" style="fill: none"/>
  </g>
  <g id="axes_1">
   <g id="patch_2">
    <path d="M 7.2 129.168 
L 9.06 129.168 
L 9.06 95.545982 
L 7.2 95.545982 
z
" clip-path="url(#p5afd5bf96c)" style="fill: #86cff9"/>
   </g>
   <g id="patch_3">
    <path d="M 9.06 129.168 
L 10.92 129.168 
L 10.92 89.39577 
L 9.06 89.39577 
z
" clip-path="url(#p5afd5bf96c)" style="fill: #86cff9"/>
   </g>
   <g id="patch_4">
    <path d="M 10.92 129.168 
L 12.78 129.168 
L 12.78 102.618617 
L 10.92 102.618617 
z
" clip-path="url(#p5afd5bf96c)" style="fill: #86cff9"/>
   </g>
   <g id="patch_5">
    <path d="M 12.78 129.168 
L 14.64 129.168 
L 14.64 104.135064 
L 12.78 104.135064 
z
" clip-path="url(#p5afd5bf96c)" style="fill: #86cff9"/>
   </g>
   <g id="patch_6">
    <path d="M 14.64 129.168 
L 16.5 129.168 
L 16.5 100.201484 
L 14.64 100.201484 
z
" clip-path="url(#p5afd5bf96c)" style="fill: #86cff9"/>
   </g>
   <g id="patch_7">
    <path d="M 16.5 129.168 
L 18.36 129.168 
L 18.36 101.063666 
L 16.5 101.063666 
z
" clip-path="url(#p5afd5bf96c)" style="fill: #86cff9"/>
   </g>
   <g id="patch_8">
    <path d="M 18.36 129.168 
L 20.22 129.168 
L 20.22 95.983437 
L 18.36 95.983437 
z
" clip-path="url(#p5afd5bf96c)" style="fill: #86cff9"/>
   </g>
   <g id="patch_9">
    <path d="M 20.22 129.168 
L 22.08 129.168 
L 22.08 97.111356 
L 20.22 97.111356 
z
" clip-path="url(#p5afd5bf96c)" style="fill: #86cff9"/>
   </g>
   <g id="patch_10">
    <path d="M 22.08 129.168 
L 23.94 129.168 
L 23.94 80.789295 
L 22.08 80.789295 
z
" clip-path="url(#p5afd5bf96c)" style="fill: #86cff9"/>
   </g>
   <g id="patch_11">
    <path d="M 23.94 129.168 
L 25.8 129.168 
L 25.8 103.304775 
L 23.94 103.304775 
z
" clip-path="url(#p5afd5bf96c)" style="fill: #86cff9"/>
   </g>
   <g id="patch_12">
    <path d="M 25.8 129.168 
L 27.66 129.168 
L 27.66 95.746442 
L 25.8 95.746442 
z
" clip-path="url(#p5afd5bf96c)" style="fill: #86cff9"/>
   </g>
   <g id="patch_13">
    <path d="M 27.66 129.168 
L 29.52 129.168 
L 29.52 97.959955 
L 27.66 97.959955 
z
" clip-path="url(#p5afd5bf96c)" style="fill: #86cff9"/>
   </g>
   <g id="patch_14">
    <path d="M 29.52 129.168 
L 31.38 129.168 
L 31.38 87.922525 
L 29.52 87.922525 
z
" clip-path="url(#p5afd5bf96c)" style="fill: #86cff9"/>
   </g>
   <g id="patch_15">
    <path d="M 31.38 129.168 
L 33.24 129.168 
L 33.24 95.259004 
L 31.38 95.259004 
z
" clip-path="url(#p5afd5bf96c)" style="fill: #86cff9"/>
   </g>
   <g id="patch_16">
    <path d="M 33.24 129.168 
L 35.1 129.168 
L 35.1 83.989349 
L 33.24 83.989349 
z
" clip-path="url(#p5afd5bf96c)" style="fill: #86cff9"/>
   </g>
   <g id="patch_17">
    <path d="M 35.1 129.168 
L 36.96 129.168 
L 36.96 80.594195 
L 35.1 80.594195 
z
" clip-path="url(#p5afd5bf96c)" style="fill: #86cff9"/>
   </g>
   <g id="patch_18">
    <path d="M 36.96 129.168 
L 38.82 129.168 
L 38.82 116.890297 
L 36.96 116.890297 
z
" clip-path="url(#p5afd5bf96c)"/>
   </g>
   <g id="patch_19">
    <path d="M 38.82 129.168 
L 40.68 129.168 
L 40.68 115.350074 
L 38.82 115.350074 
z
" clip-path="url(#p5afd5bf96c)"/>
   </g>
   <g id="patch_20">
    <path d="M 40.68 129.168 
L 42.54 129.168 
L 42.54 115.229574 
L 40.68 115.229574 
z
" clip-path="url(#p5afd5bf96c)"/>
   </g>
   <g id="patch_21">
    <path d="M 42.54 129.168 
L 44.4 129.168 
L 44.4 108.424196 
L 42.54 108.424196 
z
" clip-path="url(#p5afd5bf96c)"/>
   </g>
   <g id="patch_22">
    <path d="M 44.4 129.168 
L 46.26 129.168 
L 46.26 120.964345 
L 44.4 120.964345 
z
" clip-path="url(#p5afd5bf96c)"/>
   </g>
   <g id="patch_23">
    <path d="M 46.26 129.168 
L 48.12 129.168 
L 48.12 119.620078 
L 46.26 119.620078 
z
" clip-path="url(#p5afd5bf96c)"/>
   </g>
   <g id="patch_24">
    <path d="M 48.12 129.168 
L 49.98 129.168 
L 49.98 117.688456 
L 48.12 117.688456 
z
" clip-path="url(#p5afd5bf96c)"/>
   </g>
   <g id="patch_25">
    <path d="M 49.98 129.168 
L 51.84 129.168 
L 51.84 117.773234 
L 49.98 117.773234 
z
" clip-path="url(#p5afd5bf96c)"/>
   </g>
   <g id="patch_26">
    <path d="M 51.84 129.168 
L 53.7 129.168 
L 53.7 122.348804 
L 51.84 122.348804 
z
" clip-path="url(#p5afd5bf96c)"/>
   </g>
   <g id="patch_27">
    <path d="M 53.7 129.168 
L 55.56 129.168 
L 55.56 117.088754 
L 53.7 117.088754 
z
" clip-path="url(#p5afd5bf96c)"/>
   </g>
   <g id="patch_28">
    <path d="M 55.56 129.168 
L 57.42 129.168 
L 57.42 122.280449 
L 55.56 122.280449 
z
" clip-path="url(#p5afd5bf96c)"/>
   </g>
   <g id="patch_29">
    <path d="M 57.42 129.168 
L 59.28 129.168 
L 59.28 117.985964 
L 57.42 117.985964 
z
" clip-path="url(#p5afd5bf96c)"/>
   </g>
   <g id="patch_30">
    <path d="M 59.28 129.168 
L 61.14 129.168 
L 61.14 107.009527 
L 59.28 107.009527 
z
" clip-path="url(#p5afd5bf96c)"/>
   </g>
   <g id="patch_31">
    <path d="M 61.14 129.168 
L 63 129.168 
L 63 113.72774 
L 61.14 113.72774 
z
" clip-path="url(#p5afd5bf96c)"/>
   </g>
   <g id="patch_32">
    <path d="M 63 129.168 
L 64.86 129.168 
L 64.86 113.847904 
L 63 113.847904 
z
" clip-path="url(#p5afd5bf96c)"/>
   </g>
   <g id="patch_33">
    <path d="M 64.86 129.168 
L 66.72 129.168 
L 66.72 93.35511 
L 64.86 93.35511 
z
" clip-path="url(#p5afd5bf96c)"/>
   </g>
   <g id="patch_34">
    <path d="M 66.72 129.168 
L 68.58 129.168 
L 68.58 81.505327 
L 66.72 81.505327 
z
" clip-path="url(#p5afd5bf96c)" style="fill: #ee2d2c"/>
   </g>
   <g id="patch_35">
    <path d="M 68.58 129.168 
L 70.44 129.168 
L 70.44 83.620023 
L 68.58 83.620023 
z
" clip-path="url(#p5afd5bf96c)" style="fill: #ee2d2c"/>
   </g>
   <g id="patch_36">
    <path d="M 70.44 129.168 
L 72.3 129.168 
L 72.3 24.921846 
L 70.44 24.921846 
z
" clip-path="url(#p5afd5bf96c)" style="fill: #ee2d2c"/>
   </g>
   <g id="patch_37">
    <path d="M 72.3 129.168 
L 74.16 129.168 
L 74.16 85.262882 
L 72.3 85.262882 
z
" clip-path="url(#p5afd5bf96c)" style="fill: #ee2d2c"/>
   </g>
   <g id="patch_38">
    <path d="M 74.16 129.168 
L 76.02 129.168 
L 76.02 88.530305 
L 74.16 88.530305 
z
" clip-path="url(#p5afd5bf96c)" style="fill: #ee2d2c"/>
   </g>
   <g id="patch_39">
    <path d="M 76.02 129.168 
L 77.88 129.168 
L 77.88 82.723025 
L 76.02 82.723025 
z
" clip-path="url(#p5afd5bf96c)" style="fill: #ee2d2c"/>
   </g>
   <g id="patch_40">
    <path d="M 77.88 129.168 
L 79.74 129.168 
L 79.74 74.529231 
L 77.88 74.529231 
z
" clip-path="url(#p5afd5bf96c)" style="fill: #ee2d2c"/>
   </g>
   <g id="patch_41">
    <path d="M 79.74 129.168 
L 81.6 129.168 
L 81.6 90.964802 
L 79.74 90.964802 
z
" clip-path="url(#p5afd5bf96c)" style="fill: #ee2d2c"/>
   </g>
   <g id="patch_42">
    <path d="M 81.6 129.168 
L 83.46 129.168 
L 83.46 84.333129 
L 81.6 84.333129 
z
" clip-path="url(#p5afd5bf96c)" style="fill: #ee2d2c"/>
   </g>
   <g id="patch_43">
    <path d="M 83.46 129.168 
L 85.32 129.168 
L 85.32 73.447605 
L 83.46 73.447605 
z
" clip-path="url(#p5afd5bf96c)" style="fill: #ee2d2c"/>
   </g>
   <g id="patch_44">
    <path d="M 85.32 129.168 
L 87.18 129.168 
L 87.18 57.040664 
L 85.32 57.040664 
z
" clip-path="url(#p5afd5bf96c)" style="fill: #ee2d2c"/>
   </g>
   <g id="patch_45">
    <path d="M 87.18 129.168 
L 89.04 129.168 
L 89.04 82.864207 
L 87.18 82.864207 
z
" clip-path="url(#p5afd5bf96c)" style="fill: #ee2d2c"/>
   </g>
   <g id="patch_46">
    <path d="M 89.04 129.168 
L 90.9 129.168 
L 90.9 64.667097 
L 89.04 64.667097 
z
" clip-path="url(#p5afd5bf96c)" style="fill: #ee2d2c"/>
   </g>
   <g id="patch_47">
    <path d="M 90.9 129.168 
L 92.76 129.168 
L 92.76 77.336386 
L 90.9 77.336386 
z
" clip-path="url(#p5afd5bf96c)" style="fill: #ee2d2c"/>
   </g>
   <g id="patch_48">
    <path d="M 92.76 129.168 
L 94.62 129.168 
L 94.62 75.303792 
L 92.76 75.303792 
z
" clip-path="url(#p5afd5bf96c)" style="fill: #ee2d2c"/>
   </g>
   <g id="patch_49">
    <path d="M 94.62 129.168 
L 96.48 129.168 
L 96.48 83.732969 
L 94.62 83.732969 
z
" clip-path="url(#p5afd5bf96c)" style="fill: #ee2d2c"/>
   </g>
   <g id="patch_50">
    <path d="M 96.48 129.168 
L 98.34 129.168 
L 98.34 116.916872 
L 96.48 116.916872 
z
" clip-path="url(#p5afd5bf96c)" style="fill: #e0e0e0"/>
   </g>
   <g id="patch_51">
    <path d="M 98.34 129.168 
L 100.2 129.168 
L 100.2 114.330791 
L 98.34 114.330791 
z
" clip-path="url(#p5afd5bf96c)" style="fill: #e0e0e0"/>
   </g>
   <g id="patch_52">
    <path d="M 100.2 129.168 
L 102.06 129.168 
L 102.06 119.435146 
L 100.2 119.435146 
z
" clip-path="url(#p5afd5bf96c)" style="fill: #e0e0e0"/>
   </g>
   <g id="patch_53">
    <path d="M 102.06 129.168 
L 103.92 129.168 
L 103.92 113.39589 
L 102.06 113.39589 
z
" clip-path="url(#p5afd5bf96c)" style="fill: #e0e0e0"/>
   </g>
   <g id="patch_54">
    <path d="M 103.92 129.168 
L 105.78 129.168 
L 105.78 117.165186 
L 103.92 117.165186 
z
" clip-path="url(#p5afd5bf96c)" style="fill: #e0e0e0"/>
   </g>
   <g id="patch_55">
    <path d="M 105.78 129.168 
L 107.64 129.168 
L 107.64 119.063358 
L 105.78 119.063358 
z
" clip-path="url(#p5afd5bf96c)" style="fill: #e0e0e0"/>
   </g>
   <g id="patch_56">
    <path d="M 107.64 129.168 
L 109.5 129.168 
L 109.5 119.59125 
L 107.64 119.59125 
z
" clip-path="url(#p5afd5bf96c)" style="fill: #e0e0e0"/>
   </g>
   <g id="patch_57">
    <path d="M 109.5 129.168 
L 111.36 129.168 
L 111.36 113.230441 
L 109.5 113.230441 
z
" clip-path="url(#p5afd5bf96c)" style="fill: #e0e0e0"/>
   </g>
   <g id="patch_58">
    <path d="M 111.36 129.168 
L 113.22 129.168 
L 113.22 119.058982 
L 111.36 119.058982 
z
" clip-path="url(#p5afd5bf96c)" style="fill: #e0e0e0"/>
   </g>
   <g id="patch_59">
    <path d="M 113.22 129.168 
L 115.08 129.168 
L 115.08 118.294759 
L 113.22 118.294759 
z
" clip-path="url(#p5afd5bf96c)" style="fill: #e0e0e0"/>
   </g>
   <g id="patch_60">
    <path d="M 115.08 129.168 
L 116.94 129.168 
L 116.94 120.820863 
L 115.08 120.820863 
z
" clip-path="url(#p5afd5bf96c)" style="fill: #e0e0e0"/>
   </g>
   <g id="patch_61">
    <path d="M 116.94 129.168 
L 118.8 129.168 
L 118.8 115.950942 
L 116.94 115.950942 
z
" clip-path="url(#p5afd5bf96c)" style="fill: #e0e0e0"/>
   </g>
   <g id="patch_62">
    <path d="M 118.8 129.168 
L 120.66 129.168 
L 120.66 113.559078 
L 118.8 113.559078 
z
" clip-path="url(#p5afd5bf96c)" style="fill: #e0e0e0"/>
   </g>
   <g id="patch_63">
    <path d="M 120.66 129.168 
L 122.52 129.168 
L 122.52 120.602006 
L 120.66 120.602006 
z
" clip-path="url(#p5afd5bf96c)" style="fill: #e0e0e0"/>
   </g>
   <g id="patch_64">
    <path d="M 122.52 129.168 
L 124.38 129.168 
L 124.38 120.569054 
L 122.52 120.569054 
z
" clip-path="url(#p5afd5bf96c)" style="fill: #e0e0e0"/>
   </g>
   <g id="patch_65">
    <path d="M 124.38 129.168 
L 126.24 129.168 
L 126.24 114.225044 
L 124.38 114.225044 
z
" clip-path="url(#p5afd5bf96c)" style="fill: #e0e0e0"/>
   </g>
   <g id="patch_66">
    <path d="M 126.24 129.168 
L 128.1 129.168 
L 128.1 84.607525 
L 126.24 84.607525 
z
" clip-path="url(#p5afd5bf96c)" style="fill: #a3cd5b"/>
   </g>
   <g id="patch_67">
    <path d="M 128.1 129.168 
L 129.96 129.168 
L 129.96 101.059318 
L 128.1 101.059318 
z
" clip-path="url(#p5afd5bf96c)" style="fill: #a3cd5b"/>
   </g>
   <g id="patch_68">
    <path d="M 129.96 129.168 
L 131.82 129.168 
L 131.82 99.002198 
L 129.96 99.002198 
z
" clip-path="url(#p5afd5bf96c)" style="fill: #a3cd5b"/>
   </g>
   <g id="patch_69">
    <path d="M 131.82 129.168 
L 133.68 129.168 
L 133.68 89.861591 
L 131.82 89.861591 
z
" clip-path="url(#p5afd5bf96c)" style="fill: #a3cd5b"/>
   </g>
   <g id="patch_70">
    <path d="M 133.68 129.168 
L 135.54 129.168 
L 135.54 101.349713 
L 133.68 101.349713 
z
" clip-path="url(#p5afd5bf96c)" style="fill: #a3cd5b"/>
   </g>
   <g id="patch_71">
    <path d="M 135.54 129.168 
L 137.4 129.168 
L 137.4 97.999451 
L 135.54 97.999451 
z
" clip-path="url(#p5afd5bf96c)" style="fill: #a3cd5b"/>
   </g>
   <g id="patch_72">
    <path d="M 137.4 129.168 
L 139.26 129.168 
L 139.26 107.051127 
L 137.4 107.051127 
z
" clip-path="url(#p5afd5bf96c)" style="fill: #a3cd5b"/>
   </g>
   <g id="patch_73">
    <path d="M 139.26 129.168 
L 141.12 129.168 
L 141.12 93.934801 
L 139.26 93.934801 
z
" clip-path="url(#p5afd5bf96c)" style="fill: #a3cd5b"/>
   </g>
   <g id="patch_74">
    <path d="M 141.12 129.168 
L 142.98 129.168 
L 142.98 89.869192 
L 141.12 89.869192 
z
" clip-path="url(#p5afd5bf96c)" style="fill: #a3cd5b"/>
   </g>
   <g id="patch_75">
    <path d="M 142.98 129.168 
L 144.84 129.168 
L 144.84 91.190448 
L 142.98 91.190448 
z
" clip-path="url(#p5afd5bf96c)" style="fill: #a3cd5b"/>
   </g>
   <g id="patch_76">
    <path d="M 144.84 129.168 
L 146.7 129.168 
L 146.7 107.405821 
L 144.84 107.405821 
z
" clip-path="url(#p5afd5bf96c)" style="fill: #a3cd5b"/>
   </g>
   <g id="patch_77">
    <path d="M 146.7 129.168 
L 148.56 129.168 
L 148.56 87.930778 
L 146.7 87.930778 
z
" clip-path="url(#p5afd5bf96c)" style="fill: #a3cd5b"/>
   </g>
   <g id="patch_78">
    <path d="M 148.56 129.168 
L 150.42 129.168 
L 150.42 99.130662 
L 148.56 99.130662 
z
" clip-path="url(#p5afd5bf96c)" style="fill: #a3cd5b"/>
   </g>
   <g id="patch_79">
    <path d="M 150.42 129.168 
L 152.28 129.168 
L 152.28 108.916298 
L 150.42 108.916298 
z
" clip-path="url(#p5afd5bf96c)" style="fill: #a3cd5b"/>
   </g>
   <g id="patch_80">
    <path d="M 152.28 129.168 
L 154.14 129.168 
L 154.14 112.224892 
L 152.28 112.224892 
z
" clip-path="url(#p5afd5bf96c)" style="fill: #a3cd5b"/>
   </g>
   <g id="patch_81">
    <path d="M 154.14 129.168 
L 156 129.168 
L 156 110.994135 
L 154.14 110.994135 
z
" clip-path="url(#p5afd5bf96c)" style="fill: #a3cd5b"/>
   </g>
   <g id="patch_82">
    <path d="M 156 129.168 
L 157.86 129.168 
L 157.86 119.9196 
L 156 119.9196 
z
" clip-path="url(#p5afd5bf96c)" style="fill: #ffafba"/>
   </g>
   <g id="patch_83">
    <path d="M 157.86 129.168 
L 159.72 129.168 
L 159.72 123.799764 
L 157.86 123.799764 
z
" clip-path="url(#p5afd5bf96c)" style="fill: #ffafba"/>
   </g>
   <g id="patch_84">
    <path d="M 159.72 129.168 
L 161.58 129.168 
L 161.58 122.639129 
L 159.72 122.639129 
z
" clip-path="url(#p5afd5bf96c)" style="fill: #ffafba"/>
   </g>
   <g id="patch_85">
    <path d="M 161.58 129.168 
L 163.44 129.168 
L 163.44 119.093668 
L 161.58 119.093668 
z
" clip-path="url(#p5afd5bf96c)" style="fill: #ffafba"/>
   </g>
   <g id="patch_86">
    <path d="M 163.44 129.168 
L 165.3 129.168 
L 165.3 121.683892 
L 163.44 121.683892 
z
" clip-path="url(#p5afd5bf96c)" style="fill: #ffafba"/>
   </g>
   <g id="patch_87">
    <path d="M 165.3 129.168 
L 167.16 129.168 
L 167.16 120.672057 
L 165.3 120.672057 
z
" clip-path="url(#p5afd5bf96c)" style="fill: #ffafba"/>
   </g>
   <g id="patch_88">
    <path d="M 167.16 129.168 
L 169.02 129.168 
L 169.02 121.651154 
L 167.16 121.651154 
z
" clip-path="url(#p5afd5bf96c)" style="fill: #ffafba"/>
   </g>
   <g id="patch_89">
    <path d="M 169.02 129.168 
L 170.88 129.168 
L 170.88 97.932516 
L 169.02 97.932516 
z
" clip-path="url(#p5afd5bf96c)" style="fill: #ffafba"/>
   </g>
   <g id="patch_90">
    <path d="M 170.88 129.168 
L 172.74 129.168 
L 172.74 121.459874 
L 170.88 121.459874 
z
" clip-path="url(#p5afd5bf96c)" style="fill: #ffafba"/>
   </g>
   <g id="patch_91">
    <path d="M 172.74 129.168 
L 174.6 129.168 
L 174.6 123.967754 
L 172.74 123.967754 
z
" clip-path="url(#p5afd5bf96c)" style="fill: #ffafba"/>
   </g>
   <g id="patch_92">
    <path d="M 174.6 129.168 
L 176.46 129.168 
L 176.46 120.641996 
L 174.6 120.641996 
z
" clip-path="url(#p5afd5bf96c)" style="fill: #ffafba"/>
   </g>
   <g id="patch_93">
    <path d="M 176.46 129.168 
L 178.32 129.168 
L 178.32 114.453008 
L 176.46 114.453008 
z
" clip-path="url(#p5afd5bf96c)" style="fill: #ffafba"/>
   </g>
   <g id="patch_94">
    <path d="M 178.32 129.168 
L 180.18 129.168 
L 180.18 116.444761 
L 178.32 116.444761 
z
" clip-path="url(#p5afd5bf96c)" style="fill: #ffafba"/>
   </g>
   <g id="patch_95">
    <path d="M 180.18 129.168 
L 182.04 129.168 
L 182.04 121.712413 
L 180.18 121.712413 
z
" clip-path="url(#p5afd5bf96c)" style="fill: #ffafba"/>
   </g>
   <g id="patch_96">
    <path d="M 182.04 129.168 
L 183.9 129.168 
L 183.9 121.078621 
L 182.04 121.078621 
z
" clip-path="url(#p5afd5bf96c)" style="fill: #ffafba"/>
   </g>
   <g id="patch_97">
    <path d="M 183.9 129.168 
L 185.76 129.168 
L 185.76 108.686343 
L 183.9 108.686343 
z
" clip-path="url(#p5afd5bf96c)" style="fill: #ffafba"/>
   </g>
   <g id="patch_98">
    <path d="M 8.13 18.667077 
L 37.89 18.667077 
L 37.89 8.242462 
L 8.13 8.242462 
z
" style="fill: #86cff9; stroke: #86cff9; stroke-linejoin: miter"/>
   </g>
   <g id="patch_99">
    <path d="M 37.89 18.667077 
L 67.65 18.667077 
L 67.65 8.242462 
L 37.89 8.242462 
z
" style="stroke: #000000; stroke-linejoin: miter"/>
   </g>
   <g id="patch_100">
    <path d="M 67.65 18.667077 
L 97.41 18.667077 
L 97.41 8.242462 
L 67.65 8.242462 
z
" style="fill: #ee2d2c; stroke: #ee2d2c; stroke-linejoin: miter"/>
   </g>
   <g id="patch_101">
    <path d="M 97.41 18.667077 
L 127.17 18.667077 
L 127.17 8.242462 
L 97.41 8.242462 
z
" style="fill: #e0e0e0; stroke: #e0e0e0; stroke-linejoin: miter"/>
   </g>
   <g id="patch_102">
    <path d="M 127.17 18.667077 
L 156.93 18.667077 
L 156.93 8.242462 
L 127.17 8.242462 
z
" style="fill: #a3cd5b; stroke: #a3cd5b; stroke-linejoin: miter"/>
   </g>
   <g id="patch_103">
    <path d="M 156.93 18.667077 
L 186.69 18.667077 
L 186.69 8.242462 
L 156.93 8.242462 
z
" style="fill: #ffafba; stroke: #ffafba; stroke-linejoin: miter"/>
   </g>
  </g>
 </g>
 <defs>
  <clipPath id="p5afd5bf96c">
   <rect x="7.2" y="7.2" width="178.56" height="121.968"/>
  </clipPath>
 </defs>
</svg>
